<svg  opacity="0.3" width="1440" height="536" viewBox="0 0 1440 536" fill="none" xmlns="http://www.w3.org/2000/svg">
<path d="M-820 466C-686.553 451.072 -576.817 360.041 -417.59 344.74C-332.724 336.584 -264.737 352.457 -188.882 377.12C-113.027 401.783 -127.876 412.432 42.7213 431.446C183.503 447.136 220.328 277.97 358.281 284.469C496.233 290.969 560.037 87.5789 705.685 104.557C851.333 121.535 880.434 77.6388 1017.34 160.832C1154.25 244.025 1280.74 50.1074 1452.6 33.1292C1624.47 16.151 1669.23 196.355 1750.79 189.563C1832.36 182.772 1905.79 311.179 1975.7 329.855C2045.61 348.531 2065.44 280.687 2214 280.687" stroke="#3A56FF" stroke-linecap="round" stroke-linejoin="round"/>
<path d="M1489 346C1413.79 337.607 1351.94 286.428 1262.2 277.826C1214.37 273.241 1176.05 282.165 1133.29 296.03C1090.54 309.896 1098.91 315.884 1002.76 326.573C923.413 335.395 902.658 240.287 824.906 243.941C747.155 247.595 711.194 133.247 629.105 142.792C547.016 152.338 530.615 127.659 453.451 174.431C376.288 221.203 304.997 112.18 208.132 102.635C111.267 93.0895 86.0385 194.402 40.0688 190.584C-5.90095 186.766 -47.2906 258.958 -86.6932 269.458C-126.096 279.958 -137.269 241.815 -221 241.815" stroke="#3A56FF" stroke-linecap="round" stroke-linejoin="round"/>
<path d="M-28 83.8096C55.4933 75.7311 49.9271 123.721 159.86 130.722C269.793 137.723 300.407 88.7138 350.503 74.7111C400.599 60.7084 422.864 -3.10025 506.357 1.20828C589.85 5.51682 631.597 48.6875 701.175 54.0731C770.752 59.4588 784.668 95.1766 850.071 121.566C915.474 147.956 975.311 151.188 1057.41 145.802C1139.51 140.416 1161.78 85.9639 1200.74 83.8096C1239.71 81.6553 1274.5 107.622 1307.89 113.546C1341.29 119.47 1351.03 145.802 1422 145.802" stroke="#EEEFF4" stroke-linecap="round" stroke-linejoin="round"/>
<path d="M1485.77 413.935C1482.67 416.074 1479.58 417.975 1476.25 419.877C1468.16 424.656 1459.18 427.751 1449.86 428.976C1440.54 430.202 1431.07 429.531 1422.01 427.006C1430.58 430.809 1439.38 433.656 1448.18 436.754C1460.53 439.731 1473.45 439.236 1485.53 435.324V413.935H1485.77Z" fill="white"/>
<path d="M1485.77 99.9958C1476.21 94.8948 1466.06 90.9838 1455.55 88.3504C1445.8 87.1661 1436.05 86.2114 1426.29 85.9736C1446.04 89.5393 1463.88 99.758 1479.82 111.403L1485.53 115.685V99.9958H1485.77Z" fill="white"/>
<path d="M1485.77 385.416C1481.25 389.698 1476.49 393.733 1471.49 397.774C1458.41 408.23 1443.18 417.261 1426.29 419.638C1415.83 421.539 1405.12 419.4 1394.89 416.786C1403.93 420.351 1412.97 424.154 1422.25 427.243C1440.33 432.471 1460.07 429.62 1476.49 420.113C1479.82 418.212 1482.91 416.311 1486 414.172V385.416H1485.77Z" fill="black"/>
<path d="M1485.77 166.774C1484.81 165.449 1483.78 164.18 1482.67 162.971C1469.59 147.049 1455.55 131.601 1439.38 118.768C1419.4 102.37 1396.32 86.6851 1369.92 84.5461C1360.47 84.3838 1351.02 84.701 1341.61 85.4962C1370.39 86.6805 1395.14 103.796 1416.54 121.382C1442.47 141.823 1463.4 167.489 1482.91 194.104L1485.77 198.386V166.774Z" fill="black"/>
<path d="M1485.77 115.681L1480.06 111.399C1464.12 99.7541 1446.28 89.5354 1426.53 85.9706C1417.25 85.2573 1408.21 84.5449 1398.93 84.5449C1420.11 87.8755 1439.14 98.8076 1456.03 111.641C1466.76 119.553 1476.72 128.465 1485.77 138.258V115.681Z" fill="black"/>
<path d="M1485.77 138.258C1476.69 128.405 1466.65 119.488 1455.79 111.641C1438.9 98.8077 1419.87 87.8757 1398.7 84.5487C1389.18 84.0732 1379.43 83.5985 1369.68 84.5487C1396.08 86.9255 1419.16 102.372 1439.14 118.771C1455.55 131.604 1469.35 147.051 1482.44 162.973C1483.39 164.158 1484.34 165.35 1485.53 166.776V138.261L1485.77 138.258Z" fill="white"/>
<path d="M1485.77 277.047C1479.11 256.133 1467.69 236.884 1455.08 218.822C1430.81 185.789 1403.22 155.369 1371.58 129.465C1354.45 115.444 1336.13 101.897 1314.72 95.7188C1304.73 92.6296 1294.5 92.154 1284.04 92.6296C1274.28 94.2931 1264.53 95.9565 1255.25 98.5711C1274.28 95.7197 1293.79 99.5213 1310.68 108.319C1328.76 117.825 1344.7 130.658 1360.16 143.729C1380.86 160.603 1399.65 179.853 1417.02 199.815C1432.96 218.352 1448.42 237.84 1459.12 259.941C1472.44 287.03 1477.92 319.35 1467.69 348.581C1462.69 362.84 1453.41 376.149 1439.62 383.041C1446.99 381.377 1454.36 378.526 1461.5 376.624C1446.51 389.933 1429.86 403.004 1410.12 408.236C1397.03 411.801 1383.47 410.375 1370.63 406.81C1378.72 410.375 1386.81 413.702 1395.13 416.792C1405.36 419.169 1416.07 421.308 1426.54 419.644C1443.43 417.267 1458.65 408.236 1471.73 397.78C1476.71 393.915 1481.47 389.789 1486 385.418V368.544C1483.46 369.995 1480.74 371.113 1477.92 371.871C1472.68 373.055 1467.69 375.673 1462.45 376.152C1473.4 370.449 1481.48 359.992 1486 348.585V277.047H1485.77Z" fill="white"/>
<path d="M1485.77 198.146L1482.91 193.864C1463.41 167.484 1442.47 141.819 1416.54 121.143C1395.13 103.56 1370.39 86.4453 1341.61 85.2573C1331.65 85.6069 1321.72 86.5591 1311.87 88.1088C1342.32 86.4453 1369.44 104.507 1391.8 123.044C1411.31 138.258 1428.67 155.84 1444.37 174.853C1459.36 192.918 1473.87 211.693 1485.77 231.892V198.146Z" fill="white"/>
<path d="M1485.77 232.37C1473.87 212.169 1459.36 193.394 1444.37 175.333C1428.67 156.32 1411.31 138.734 1391.8 123.524C1369.2 104.987 1342.32 86.9256 1311.87 88.5891C1302.59 89.3024 1293.32 90.9659 1284.04 92.6294C1294.37 91.7566 1304.77 92.8044 1314.72 95.7195C1336.13 101.899 1354.45 115.682 1371.58 129.466C1403.22 155.369 1431.05 185.788 1455.08 218.822C1467.69 236.646 1479.11 255.896 1485.77 277.047V232.37Z" fill="black"/>
<path d="M1416.78 200.047C1399.18 179.847 1380.38 160.835 1359.92 143.962C1344.46 130.89 1328.52 118.057 1310.44 108.551C1293.55 99.5201 1274.05 95.7176 1255.01 98.8032C1245.02 100.942 1235.27 103.085 1225.52 106.408C1239.79 103.794 1254.78 103.557 1268.81 107.593C1290.46 113.772 1309.01 127.08 1326.38 140.626C1355.64 163.164 1382.72 188.387 1407.27 215.966C1422.25 233.078 1436.05 251.614 1444.61 273.003C1458.89 307.225 1457.22 350.712 1431.53 379.234C1422.25 389.928 1407.74 393.018 1394.66 396.817C1409.89 389.211 1420.11 374.477 1426.54 359.03C1434.42 339.352 1436.49 317.825 1432.48 297.009C1427.48 269.441 1411.54 245.438 1392.75 225.238C1367.54 198.145 1339.22 173.904 1309.97 151.328C1291.41 136.831 1271.9 122.572 1249.07 115.68C1231.23 110.214 1211.95 111.165 1194.11 115.918C1181.99 119.483 1170.09 123.761 1158.19 128.034C1174.37 123.753 1191.02 119.479 1208.15 120.905C1232.65 122.331 1254.78 134.688 1274.52 148.473C1299.26 166.297 1323.76 184.596 1346.84 204.083C1363.73 218.818 1380.85 233.552 1393.7 251.852C1408.1 271.472 1415.71 295.253 1415.35 319.583C1414.87 343.11 1407.5 366.638 1393.46 385.65C1387.75 393.877 1379.95 400.439 1370.86 404.663C1370.62 404.901 1368.72 405.376 1369.68 405.847C1369.91 406.085 1370.39 406.085 1370.63 406.323C1383.47 409.888 1397.27 411.313 1410.11 407.749C1429.86 402.52 1446.51 389.449 1461.5 376.137C1454.12 378.038 1446.99 380.889 1439.61 382.554C1453.41 375.904 1462.68 362.353 1467.68 348.094C1477.91 319.101 1472.44 286.542 1459.12 259.454C1448.18 238.072 1432.96 218.584 1416.78 200.047Z" fill="black"/>
<path d="M1407.26 215.97C1382.71 188.391 1355.63 163.168 1326.38 140.63C1309.01 127.084 1290.46 113.538 1268.81 107.596C1254.77 103.556 1239.79 103.794 1225.51 106.412C1214.81 109.264 1204.1 112.354 1193.87 116.16C1211.71 111.407 1230.98 110.456 1248.82 115.922C1271.66 122.814 1291.17 137.073 1309.72 151.57C1339.22 174.147 1367.29 198.387 1392.51 225.479C1411.3 245.68 1427.24 269.683 1432.23 297.251C1436.24 318.069 1434.18 339.599 1426.29 359.278C1419.86 374.726 1409.64 389.459 1394.41 397.065C1407.49 393.262 1421.77 390.173 1431.28 379.482C1456.97 350.968 1458.64 307.473 1444.37 273.251C1436.05 251.856 1422.25 233.081 1407.26 215.97Z" fill="white"/>
<path d="M1393.7 252.331C1380.86 234.031 1363.49 219.297 1346.84 204.562C1323.53 184.837 1299.02 166.776 1274.53 148.952C1254.78 135.169 1232.66 122.806 1208.15 121.384C1191.26 119.721 1174.61 124.236 1158.2 128.514C1148.21 131.603 1138.69 135.405 1128.7 138.496C1122.04 138.971 1115.38 139.209 1108.95 140.397C1113.47 140.872 1117.99 140.397 1122.51 140.635C1120.61 140.872 1118 142.536 1116.81 142.06C1108 143.011 1098.49 143.724 1089.21 143.011C1082.72 144.015 1076.29 145.364 1069.94 147.051C1084.45 147.764 1099.2 145.867 1113.47 143.248C1093.49 149.428 1072.32 152.755 1051.39 151.803C1044.96 153.467 1038.78 155.606 1032.59 157.745C1055.66 158.221 1078.74 154.656 1100.87 148.239C1121.8 142.535 1142.26 134.692 1163.91 131.841C1180.72 129.444 1197.86 131.157 1213.86 136.831C1239.56 146.1 1261.2 163.211 1283.33 178.658C1308.78 196.24 1334 214.306 1357.07 234.982C1374.67 250.904 1388.72 271.342 1393.47 294.632C1398.94 319.585 1394.9 345.965 1384.67 369.255C1377.06 386.129 1366.35 402.764 1349.7 412.032C1356.36 410.848 1362.54 406.804 1369.44 406.328C1368.49 405.853 1370.16 405.378 1370.63 405.144C1379.72 400.92 1387.52 394.358 1393.23 386.131C1407.26 367.119 1414.64 343.588 1415.11 320.064C1415.83 295.822 1407.74 271.819 1393.7 252.331Z" fill="white"/>
<path d="M1357.3 234.745C1334.23 214.306 1309.01 196.007 1283.56 178.421C1261.43 162.973 1239.79 145.625 1214.09 136.594C1198.09 130.92 1180.95 129.207 1164.14 131.604C1142.49 134.455 1122.03 142.298 1101.1 148.002C1078.97 154.418 1055.9 157.984 1032.82 157.508C1026.52 159.369 1020.32 161.59 1014.27 164.158C1036.63 164.872 1058.75 161.544 1080.4 156.316C1105.62 150.374 1130.59 141.343 1156.76 140.868C1169.73 140.736 1182.62 142.908 1194.82 147.284C1224.56 157.74 1248.82 178.179 1275.47 194.339C1297.59 208.36 1319.72 222.619 1339.94 239.017C1352.07 248.999 1362.3 261.357 1368.72 275.854C1382.76 307.699 1377.53 344.773 1363.25 375.667C1354.69 393.491 1343.51 411.553 1325.67 421.297C1333.76 418.445 1342.08 415.593 1349.93 412.266C1366.58 402.998 1377.29 386.12 1384.9 369.488C1395.13 346.198 1398.94 319.818 1393.7 294.865C1388.71 271.105 1374.67 250.667 1357.3 234.745Z" fill="black"/>
<path d="M1368.49 275.622C1362.07 261.363 1351.84 248.767 1339.7 238.785C1319.48 222.149 1297.12 208.128 1275.23 194.107C1248.59 177.947 1224.32 157.508 1194.59 147.052C1182.35 142.79 1169.49 140.621 1156.53 140.635C1130.36 141.11 1105.38 149.903 1080.17 156.083C1058.52 161.311 1036.16 164.638 1014.03 163.926C1007.61 166.065 1001.43 168.678 995.241 171.293C1026.4 172.243 1057.09 166.065 1087.3 158.697C1114.66 152.047 1143.68 147.765 1171.04 156.558C1199.58 165.113 1223.85 183.413 1249.3 198.147C1267.86 208.366 1286.18 219.061 1304.5 230.23C1317.82 238.548 1331.14 247.579 1340.65 260.175C1351.36 273.721 1356.59 291.069 1357.78 308.184C1358.97 332.663 1352.79 356.903 1343.03 379.243C1333.99 398.492 1322.57 417.98 1303.78 429.387C1311.39 427.01 1318.77 423.921 1326.14 421.069C1343.99 411.322 1355.17 393.264 1363.73 375.44C1377.29 344.541 1382.52 307.704 1368.49 275.622Z" fill="white"/>
<path d="M1340.18 260.413C1330.66 247.818 1317.34 238.787 1304.02 230.468C1285.94 219.299 1267.62 208.604 1248.83 198.386C1223.38 183.651 1199.11 165.352 1170.56 156.797C1143.21 148.004 1114.19 152.282 1086.83 158.936C1056.62 166.303 1025.93 172.482 994.765 171.531C988.579 173.908 982.395 176.522 976.447 179.374C994.289 180.087 1011.89 178.424 1029.5 176.047C1054.24 172.482 1078.26 165.591 1103.24 163.214C1120 161.73 1136.88 163.505 1152.96 168.442C1178.89 176.285 1201.49 191.49 1225.04 204.327C1251.21 218.111 1278.8 229.518 1303.78 245.679C1322.81 257.324 1335.18 278.475 1337.09 300.576C1339.47 322.678 1335.18 344.78 1328.28 365.693C1320.43 388.27 1309.49 409.897 1293.32 427.72C1289.27 432.235 1284.28 435.801 1279.28 439.128C1287.37 436.039 1295.22 433.186 1303.07 429.859C1321.62 418.452 1333.04 398.965 1342.32 379.714C1352.08 357.375 1358.5 333.135 1357.07 308.656C1356.36 291.068 1351.12 273.958 1340.18 260.413Z" fill="black"/>
<path d="M1337.56 300.337C1335.66 278.235 1323.29 257.084 1304.26 245.439C1279.28 229.516 1251.68 217.871 1225.52 204.088C1201.97 191.492 1179.37 176.282 1153.44 168.202C1137.5 163.212 1120.37 161.786 1103.72 162.974C1078.74 165.351 1054.71 172.005 1029.97 175.807C1012.37 178.422 994.526 179.848 976.923 179.134C970.499 181.749 964.077 184.6 957.891 187.452C984.772 188.165 1011.42 185.55 1037.82 180.801C1057.33 177.474 1077.07 173.672 1096.82 173.672C1112.82 173.773 1128.68 176.668 1143.69 182.227C1169.38 191.258 1192.45 206.706 1217.43 217.162C1230.04 222.39 1242.41 227.619 1255.02 232.847C1271.43 239.976 1288.56 246.394 1301.41 259.227C1314.25 272.536 1319.01 291.547 1319.01 309.847C1319.01 330.047 1314.49 349.772 1307.82 368.788C1299.74 391.837 1288.79 414.418 1273.09 433.43C1268.16 439.271 1262.29 444.25 1255.73 448.165C1263.82 445.314 1271.67 442.223 1279.52 438.896C1284.51 435.569 1289.51 432.005 1293.55 427.489C1309.73 409.665 1320.67 388.043 1328.52 365.462C1335.66 344.539 1339.94 322.439 1337.56 300.337Z" fill="white"/>
<path d="M1301.4 259.223C1288.56 246.39 1271.19 239.974 1255.02 232.844C1242.41 227.615 1230.04 222.149 1217.43 217.159C1192.21 206.702 1169.37 191.254 1143.68 182.224C1128.65 176.778 1112.81 173.886 1096.82 173.668C1076.84 173.668 1057.33 177.471 1037.82 180.798C1011.41 185.551 984.532 188.165 957.889 187.448C951.704 190.063 945.281 192.914 939.096 195.766C952.418 196.003 965.739 195.765 979.061 195.052C1019.74 193.151 1060.18 179.605 1101.1 186.497C1136.07 191.963 1165.8 212.402 1198.4 224.046C1210.05 228.086 1221.47 232.127 1233.13 236.162C1248.12 241.391 1263.58 245.431 1276.9 254.462C1288.08 261.829 1295.22 274.424 1297.84 287.258C1302.36 309.122 1298.55 331.699 1292.84 353.088C1286.54 375.61 1277.6 397.308 1266.2 417.729C1257.4 432.701 1247.64 447.673 1232.65 456.704C1240.51 453.853 1248.35 450.762 1255.97 447.435C1262.53 443.521 1268.4 438.541 1273.33 432.701C1289.03 413.688 1299.74 391.112 1308.06 368.059C1314.49 349.056 1319.25 329.33 1319.25 309.134C1319.01 291.782 1314.25 272.77 1301.4 259.223Z" fill="black"/>
<path d="M1297.6 287.504C1294.98 274.432 1288.08 262.075 1276.66 254.707C1263.58 245.677 1247.88 241.636 1232.89 236.408C1221.23 232.368 1209.82 228.328 1198.16 224.292C1165.33 212.41 1135.59 192.209 1100.86 186.743C1059.94 179.614 1019.5 193.393 978.822 195.298C965.523 196.249 952.182 196.487 938.857 196.012C932.671 198.863 926.249 201.478 920.063 204.329C936.716 204.805 953.606 204.567 970.257 203.379C993.329 201.715 1015.93 197.675 1038.77 195.774C1064.07 193.318 1089.59 196.566 1113.47 205.28C1136.78 213.361 1158.66 225.718 1182.69 232.135C1200.29 237.125 1217.9 241.882 1235.74 246.394C1245.5 249.245 1255.48 252.335 1263.34 258.989C1272.38 266.119 1277.13 277.288 1279.04 288.458C1281.65 304.143 1279.99 320.07 1276.89 335.513C1270.47 366.408 1259.05 396.115 1244.07 423.92C1235.03 439.842 1225.03 456.716 1208.62 466.222C1216.71 463.607 1224.32 460.281 1232.17 457.429C1247.16 448.398 1257.15 433.188 1265.71 418.454C1277.04 397.994 1285.98 376.305 1292.36 353.813C1298.31 332.183 1302.12 309.605 1297.6 287.504Z" fill="white"/>
<path d="M1122.51 140.159C1117.99 139.921 1113.47 140.397 1108.95 139.921C1102.29 140.159 1095.87 141.347 1089.21 142.536C1098.25 143.249 1107.76 142.536 1116.8 141.586C1117.99 142.06 1120.61 140.397 1122.51 140.159Z" fill="black"/>
<path d="M1279.04 288.454C1277.14 277.284 1272.62 266.114 1263.34 258.985C1255.49 252.334 1245.5 249.237 1235.75 246.389C1218.15 241.874 1200.3 237.12 1182.7 232.13C1158.67 225.714 1136.78 213.355 1113.47 205.275C1089.6 196.562 1064.07 193.313 1038.77 195.769C1015.94 197.67 993.1 201.711 970.263 203.374C953.611 204.559 936.72 204.8 920.069 204.324C913.883 206.701 907.941 209.553 901.751 212.167C927.863 213.279 954.021 212.485 980.017 209.79C1011.66 205.988 1044.01 201.473 1075.65 209.315C1102.77 215.019 1127.51 228.564 1154.15 235.932C1171.28 239.972 1188.41 243.774 1205.54 246.864C1220.52 249.953 1237.65 250.666 1249.07 262.312C1256.68 270.392 1259.54 282.037 1260.49 292.731C1261.44 304.847 1260.25 316.972 1258.11 328.854C1253.35 354.045 1245.02 378.523 1235.27 402.051C1226.47 422.731 1216.24 443.165 1201.97 460.514C1197.33 465.987 1191.87 470.716 1185.79 474.535C1193.54 472.155 1201.16 469.379 1208.63 466.217C1225.04 456.711 1235.03 440.072 1244.07 423.915C1259.13 396.136 1270.18 366.374 1276.9 335.509C1279.99 320.062 1281.66 303.901 1279.04 288.454Z" fill="black"/>
<path d="M1113.47 142.773C1099.2 145.388 1084.45 147.055 1069.94 146.576C1063.75 147.76 1057.57 149.665 1051.38 151.329C1072.32 152.28 1093.49 148.953 1113.47 142.773Z" fill="black"/>
<path d="M1260.72 292.732C1259.77 281.8 1257.16 270.392 1249.31 262.313C1237.89 250.667 1221 249.955 1205.77 246.865C1188.41 244.013 1171.28 240.215 1154.39 235.933C1127.75 228.566 1103 215.019 1075.89 209.316C1044.48 201.473 1011.89 205.989 980.254 209.792C954.275 212.723 928.098 213.518 901.989 212.168C899.134 213.594 896.041 212.882 893.187 212.406C892.473 212.406 892.001 212.168 891.284 212.168C894.376 215.258 893.425 220.486 892.949 224.285C890.332 240.921 882.958 256.131 876.297 271.578C866.305 293.917 856.79 316.731 847.036 339.071C837.045 361.411 827.292 384.225 812.543 403.95C804.217 414.644 792.084 423.913 778.049 424.864C771.862 424.957 765.717 423.826 759.97 421.537C759.494 422.962 757.828 423.2 756.639 423.913C738.56 434.608 720.48 446.015 700.26 452.194C706.439 454.035 712.712 455.542 719.053 456.71C738.798 450.768 755.926 439.361 773.53 428.904C785.186 434.846 799.936 436.985 811.592 430.088C828.957 420.582 838.949 402.758 847.75 385.885C865.116 350.95 878.914 314.113 895.09 278.466C902.465 261.354 911.266 244.244 912.69 225.231C912.69 221.429 913.166 216.914 909.836 214.299C915.307 214.299 921.016 215.249 926.488 215.484C931.245 215.959 931.721 222.134 931.959 225.702C932.197 246.141 922.444 264.915 914.831 283.214C901.509 312.921 889.615 343.102 876.531 372.809C868.442 390.633 860.117 408.932 847.747 424.38C840.372 433.411 830.618 441.491 818.724 443.629C811.588 445.055 804.451 443.154 797.791 441.015C801.359 443.154 805.165 444.817 808.734 446.719C798.435 453.289 787.318 458.482 775.667 462.166C782.026 462.329 788.388 462.012 794.699 461.215C802.549 458.364 811.113 455.512 818.011 450.997C825.624 453.848 834.188 455.037 842.038 452.181C853.695 448.378 862.497 438.872 869.633 429.367C878.911 416.296 885.81 401.561 892.471 387.064C905.317 358.309 916.498 329.077 928.868 300.322C936.957 280.596 947.423 261.346 950.516 240.195C951.23 232.353 951.943 222.847 945.996 216.668C964.552 219.282 983.111 214.529 1001.42 214.053C1021.88 212.628 1042.82 213.816 1062.8 218.806C1091.1 225.456 1117.27 239.486 1146.29 243.521C1162.47 246.136 1178.41 248.512 1194.82 249.701C1205.53 250.885 1217.18 250.885 1226.7 257.306C1235.5 263.01 1238.83 273.942 1240.26 283.686C1242.4 300.797 1239.78 317.907 1236.22 334.543C1229.08 365.2 1218.14 394.907 1205.05 423.425C1196.73 440.537 1187.92 457.406 1175.08 471.435C1171.27 475.717 1166.51 478.802 1161.76 481.654C1169.61 479.515 1177.46 476.663 1185.31 473.811C1191.39 469.992 1196.84 465.263 1201.48 459.79C1215.76 442.207 1225.75 421.765 1234.79 401.327C1244.78 377.799 1253.11 353.317 1257.63 328.13C1260.58 316.578 1261.63 304.621 1260.72 292.732Z" fill="white"/>
<path d="M1240.74 284.176C1239.32 274.429 1235.98 263.497 1227.18 257.797C1217.9 251.38 1206.25 251.38 1195.3 250.191C1179.13 249.007 1162.95 246.627 1146.78 244.012C1117.75 239.972 1091.59 225.951 1063.28 219.297C1043.29 214.306 1022.36 213.117 1001.91 214.544C983.351 215.257 964.792 219.772 946.478 217.159C952.425 223.1 951.711 232.843 950.997 240.686C947.905 262.075 937.675 281.325 929.349 300.812C916.741 329.568 905.561 358.799 892.953 387.555C886.296 402.052 879.393 416.786 870.116 429.857C862.979 439.364 854.177 448.87 842.521 452.672C834.67 455.523 826.106 454.335 818.494 451.487C811.357 456.002 803.031 458.855 795.181 461.706C805.407 460.988 815.874 459.326 825.39 455.522C830.385 457.423 834.905 460.275 839.901 462.173C847.751 464.549 856.553 465.262 864.166 461.697C882.483 453.142 892.95 434.842 901.99 417.493C920.783 379.707 934.58 340.019 951.47 301.523C959.321 282.51 968.837 263.261 970.502 242.348C970.74 234.267 970.74 224.286 964.316 218.82C971.215 220.484 980.255 217.636 985.726 223.573C990.246 230.465 990.246 239.021 990.012 246.863C988.827 264.211 982.162 280.609 975.739 296.77C960.277 332.893 946.479 369.73 931.016 405.853C921.739 426.053 912.461 447.204 896.047 462.889C886.769 471.682 873.21 475.961 860.839 471.92C868.214 475.247 875.588 478.337 883.201 480.951C890.017 482.674 897.212 482.089 903.659 479.288C916.267 473.346 925.069 461.939 932.444 450.532C949.096 422.252 960.039 391.356 972.171 361.174C980.021 340.495 988.585 320.061 996.674 299.385C1003.81 280.61 1010.94 260.648 1009.04 240.211C1008.08 233.56 1006.42 225.476 999.52 222.628C1020.69 222.153 1041.86 225.717 1061.85 231.897C1060.18 232.135 1058.52 231.183 1057.09 231.421C1064.94 235.703 1066.37 245.442 1067.32 253.523C1068.5 274.437 1062.8 294.637 1056.14 314.125C1045.19 345.971 1032.82 377.578 1020.69 408.948C1010.93 432.476 1001.66 456.717 986.912 477.867C978.586 489.749 965.978 501.157 950.515 500.916C958.044 502.644 965.672 503.913 973.356 504.716C988.818 503.766 1000.71 491.883 1008.8 480.001C1021.41 460.988 1030.21 439.838 1038.78 418.69C1049 392.783 1058.76 366.882 1068.04 340.736C1076.6 316.02 1085.64 290.829 1086.35 264.45C1086.12 253.993 1085.64 240.922 1075.89 234.505C1081.6 235.218 1087.31 236.644 1093.01 237.356C1100.15 239.258 1103.01 246.863 1104.43 253.279C1107.53 269.201 1104.67 285.599 1101.34 301.523C1094.68 328.615 1084.69 354.999 1075.17 381.136C1066.84 403.476 1058.28 426.049 1048.53 447.679C1041.87 461.938 1034.73 476.194 1024.98 488.556C1017.84 497.825 1007.61 505.43 995.715 506.855C1003.57 507.331 1011.65 507.806 1019.5 507.569C1032.35 505.192 1042.1 495.686 1049.48 485.705C1058.76 472.396 1065.89 457.899 1072.55 443.161C1086.11 412.266 1097.77 380.42 1108.47 348.337C1114.89 328.612 1121.08 308.65 1123.93 288.211C1125.36 275.853 1126.31 262.782 1121.79 250.9C1120.36 246.785 1117.49 243.325 1113.7 241.153C1119.65 242.103 1125.6 243.054 1131.3 244.242C1141.06 248.044 1143.2 259.214 1144.15 268.483C1145.81 295.813 1137.49 322.193 1129.64 347.858C1119.18 379.95 1107.52 411.794 1093.73 442.691C1085.4 460.752 1076.84 479.052 1063.28 493.786C1057.65 499.905 1050.39 504.278 1042.34 506.382C1050.19 505.906 1058.28 505.197 1066.13 504.005C1080.17 499.965 1089.68 487.845 1097.06 476.199C1108.48 457.662 1117.04 437.699 1125.37 417.737C1138.69 383.515 1151.54 348.817 1159.62 312.698C1162.48 297.964 1164.62 282.753 1162.71 267.786C1161.53 259.705 1158.43 250.674 1150.34 247.106C1159.14 248.532 1170.33 247.581 1176.27 255.661C1183.65 267.069 1183.17 281.09 1182.46 294.161C1180.08 320.541 1172.23 345.732 1163.9 370.685C1157.48 389.222 1150.82 407.522 1142.97 425.345C1134.41 445.304 1125.13 465.505 1111.81 482.852C1106.43 490.557 1098.9 496.509 1090.16 499.964C1098.01 498.538 1106.1 496.874 1113.95 494.973C1127.27 489.269 1136.07 476.912 1143.68 465.029C1157.01 442.927 1167 418.924 1176.28 394.684C1186.03 368.304 1195.07 341.208 1200.06 313.407C1202.21 297.96 1204.11 281.795 1199.59 266.827C1197.45 259.222 1191.74 252.568 1183.65 250.905C1193.41 250.905 1204.35 250.905 1211.72 258.272C1218.14 264.922 1220.28 274.432 1221.24 283.463C1222.42 297.247 1220.52 311.269 1217.91 324.814C1212.2 353.329 1202.21 380.9 1191.5 407.989C1182.46 429.615 1172.71 451.004 1158.91 470.016C1153.49 477.82 1146.33 484.251 1137.98 488.795C1146.05 486.808 1153.99 484.348 1161.77 481.427C1166.65 478.64 1171.13 475.203 1175.09 471.209C1187.94 457.188 1196.98 440.076 1205.06 423.199C1218.15 394.685 1229.09 364.974 1236.23 334.317C1240.5 318.398 1243.12 301.29 1240.74 284.176Z" fill="black"/>
<path d="M1221.95 284.414C1221 275.383 1218.86 265.877 1212.43 259.223C1205.06 252.094 1193.88 251.856 1184.36 251.856C1192.45 253.282 1197.92 260.173 1200.3 267.778C1205.06 282.992 1203.15 299.149 1200.78 314.358C1195.78 342.164 1186.74 369.256 1176.99 395.635C1167.71 419.638 1157.72 443.645 1144.4 465.98C1137.02 477.863 1127.98 490.221 1114.66 495.924C1122.75 494.261 1130.6 492.122 1138.45 489.745C1146.74 485.13 1153.9 478.714 1159.38 470.97C1173.18 451.958 1182.93 430.569 1191.97 408.943C1202.68 381.85 1212.67 354.283 1218.38 325.768C1221.23 311.982 1223.14 298.199 1221.95 284.414Z" fill="white"/>
<path d="M1176.99 256.371C1171.04 248.054 1159.86 249.242 1151.06 247.816C1159.15 251.381 1162.24 260.411 1163.43 268.496C1165.33 283.468 1163.19 298.677 1160.34 313.408C1152.49 349.531 1139.64 384.228 1126.08 418.447C1117.75 438.409 1109.19 458.61 1097.77 476.909C1090.4 488.555 1080.64 500.675 1066.85 504.715C1074.94 503.765 1083.02 502.576 1090.87 500.912C1099.62 497.459 1107.15 491.508 1112.52 483.805C1126.08 466.456 1135.12 446.256 1143.69 426.293C1151.3 408.232 1158.2 389.932 1164.62 371.633C1172.95 346.68 1180.8 321.255 1183.18 295.109C1184.12 281.796 1184.36 267.541 1176.99 256.371Z" fill="white"/>
<path d="M1144.63 268.492C1143.68 259.223 1141.54 248.053 1131.79 244.251C1125.84 243.067 1120.13 242.112 1114.19 241.162C1117.97 243.334 1120.84 246.794 1122.28 250.909C1126.56 262.792 1125.85 275.863 1124.42 288.22C1121.56 308.9 1115.38 328.621 1108.96 348.346C1098.01 380.429 1086.36 412.037 1073.03 443.17C1066.38 457.904 1059.47 472.639 1049.96 485.714C1042.59 495.932 1032.84 505.201 1019.99 507.578C1027.6 508.053 1035.45 507.34 1043.06 506.864C1051.06 504.666 1058.31 500.308 1063.99 494.269C1077.32 479.297 1086.12 460.997 1094.44 443.174C1108 412.279 1119.66 380.433 1130.37 348.35C1138.21 322.438 1146.3 295.822 1144.63 268.492Z" fill="white"/>
<path d="M1104.91 253.52C1103.48 247.103 1100.62 239.498 1093.49 237.597C1087.78 236.647 1082.07 235.22 1076.36 234.746C1086.12 240.925 1086.59 254.233 1086.83 264.69C1086.11 291.07 1077.07 316.261 1068.51 340.977C1059.23 367.122 1049.48 393.26 1039.25 418.926C1030.45 439.839 1021.89 461.229 1009.28 480.237C1000.95 492.12 989.294 504.24 973.83 504.952C981.205 506.378 988.818 506.854 996.43 507.329C1008.32 505.904 1018.55 498.298 1025.69 489.03C1035.45 476.672 1042.58 462.413 1049.24 448.153C1059 426.289 1067.56 403.95 1075.88 381.611C1085.4 355.465 1095.15 329.09 1102.06 301.998C1105.15 285.84 1108 269.442 1104.91 253.52Z" fill="white"/>
<path d="M1062.09 231.655C1041.87 225.476 1020.93 221.674 999.76 222.387C1006.66 225.238 1008.32 233.319 1009.28 239.969C1011.18 260.408 1004.04 280.37 996.906 299.145C988.818 319.825 980.254 340.259 972.403 360.935C960.033 391.116 949.09 422.011 932.676 450.292C925.54 461.938 916.5 473.341 903.892 479.048C897.442 481.84 890.25 482.425 883.433 480.711C890.659 483.794 898.044 486.492 905.557 488.792C923.398 492.119 938.148 478.573 947.663 465.265C962.892 442.925 972.403 417.255 982.633 392.543C994.052 363.312 1005.7 334.318 1016.65 305.087C1023.78 285.599 1030.68 264.923 1028.78 243.776C1027.82 237.126 1026.16 229.042 1019.74 225.477C1025.21 225.715 1030.44 226.903 1035.91 227.616C1043.29 228.329 1046.14 236.647 1047.57 242.83C1051.38 263.509 1045.43 284.181 1039.01 303.906C1029.97 329.81 1019.74 355.477 1009.98 381.144C999.991 406.81 990.238 432.477 977.154 456.954C969.542 470.263 960.978 484.047 947.418 491.889C941.559 495.16 934.813 496.491 928.149 495.692C935.762 498.069 943.612 499.732 951.462 501.396C966.925 501.634 979.533 490.226 987.859 478.347C1002.61 457.197 1011.89 432.956 1021.64 409.428C1033.77 377.817 1045.9 346.451 1057.08 314.605C1063.51 295.118 1069.45 274.679 1068.27 254.003C1067.31 245.923 1065.89 236.179 1058.04 231.901C1058.76 230.942 1060.42 231.893 1062.09 231.655Z" fill="white"/>
<path d="M1047.1 242.587C1045.67 236.407 1043.06 228.09 1035.44 227.373C1029.97 226.66 1024.74 225.472 1019.27 225.234C1025.92 228.799 1027.36 236.879 1028.31 243.533C1030.21 264.684 1023.31 285.122 1016.18 304.844C1005 334.075 993.341 363.068 982.165 392.3C971.936 417.253 962.183 442.678 947.195 465.021C937.918 478.33 922.931 491.876 905.089 488.549C912.326 491.2 919.713 493.42 927.213 495.199C933.877 495.998 940.622 494.667 946.481 491.397C960.278 483.792 968.843 469.77 976.218 456.462C989.302 432.221 998.817 406.317 1009.05 380.651C1018.8 354.984 1029.03 329.318 1038.07 303.413C1044.72 283.939 1050.91 263.263 1047.1 242.587Z" fill="black"/>
<path d="M985.726 223.575C980.493 217.633 971.453 220.486 964.317 218.822C970.973 224.051 970.973 234.27 970.502 242.35C968.837 263.264 959.321 282.275 951.471 301.526C934.58 340.026 920.783 379.951 901.99 417.496C893.188 434.608 882.483 453.144 864.166 461.7C856.553 465.265 847.751 464.789 839.901 462.175C846.558 465.74 853.698 468.592 860.601 471.682C872.971 475.722 886.531 471.682 895.809 462.651C912.223 447.204 921.501 426.052 930.778 405.614C946.242 369.491 960.039 332.655 975.501 296.532C981.924 280.371 988.585 264.211 989.774 246.624C990.484 239.023 990.246 230.23 985.726 223.575Z" fill="white"/>
<path d="M932.204 225.952C931.728 222.387 931.253 216.204 926.732 215.733C921.261 215.495 915.551 214.549 910.08 214.549C913.41 217.163 912.934 221.916 912.934 225.481C911.507 244.493 902.467 261.604 895.334 278.715C879.158 314.363 865.36 350.958 847.995 386.134C839.193 403.008 829.201 420.832 811.836 430.338C800.179 437.23 785.43 435.091 773.774 429.154C756.409 439.61 739.042 451.018 719.298 456.959C725.572 458.433 731.927 459.544 738.329 460.286C755.458 454.82 771.158 445.552 786.145 435.808C790.189 437.233 794.233 439.848 798.273 441.511C804.93 443.65 812.07 445.552 819.207 444.126C831.101 441.987 840.855 433.907 848.229 424.876C860.358 409.192 868.688 391.13 877.013 373.306C890.097 343.599 901.991 313.179 915.313 283.71C922.685 265.164 932.439 246.39 932.204 225.952Z" fill="black"/>
<path d="M893.187 212.405C889.798 210.813 886.3 209.463 882.72 208.365C884.861 209.79 887.478 210.741 889.619 212.167C878.676 212.643 871.063 204.087 861.548 200.051C855.362 197.196 848.94 194.582 842.279 192.208C851.17 197.057 859.751 202.454 867.971 208.368C869.874 210.27 873.68 209.318 873.918 212.65C874.87 220.493 872.253 228.335 869.874 235.94C859.169 265.171 845.609 292.977 833.715 321.732C823.486 344.781 813.733 368.075 799.701 388.988C792.089 400.633 781.622 411.328 767.825 415.367C759.023 418.218 749.983 416.08 741.419 413.704C743.084 414.654 744.749 415.129 746.414 416.08C724.766 426.775 704.784 440.796 681.233 447.451C687.544 449.711 693.977 451.615 700.501 453.155C720.722 446.975 738.801 435.572 756.881 424.874C758.066 424.161 759.735 423.924 760.211 422.497C765.921 425.112 772.105 425.824 778.291 425.824C792.326 424.874 804.462 415.606 812.784 404.911C827.533 385.186 837.287 362.367 847.278 340.032C857.035 317.454 866.547 294.878 876.538 272.538C882.961 257.09 890.573 241.881 893.191 225.245C893.429 221.205 894.618 216.215 891.525 213.129C891.575 212.964 891.659 212.811 891.774 212.682C891.888 212.553 892.029 212.45 892.188 212.381C892.346 212.312 892.517 212.279 892.69 212.283C892.863 212.287 893.032 212.329 893.187 212.405Z" fill="black"/>
<path d="M889.619 211.926C887.478 210.5 884.861 209.549 882.72 208.124C875.584 205.509 868.685 201.944 861.548 199.806C871.063 203.85 878.914 212.405 889.619 211.926Z" fill="white"/>
<path d="M873.918 212.167C873.68 208.84 869.874 209.791 867.971 207.886C859.766 201.95 851.184 196.552 842.28 191.726C836.57 189.586 831.099 186.973 825.39 185.075C837.284 191.017 847.989 198.859 858.456 206.939C856.83 206.876 855.224 206.555 853.699 205.989C855.84 210.029 854.65 214.544 853.937 218.585C851.083 231.18 846.086 243.3 841.091 255.183C828.245 284.89 815.875 314.834 802.077 344.303C793.751 361.176 785.186 378.283 772.578 392.071C762.587 403.241 746.886 410.133 731.661 406.806C729.52 406.568 727.375 405.38 725.238 405.38C727.141 406.564 729.524 407.044 731.423 408.231C708.11 418.45 686.701 433.422 661.722 439.843C668.145 442.22 674.568 444.596 680.99 446.494C704.541 439.843 724.524 425.814 746.172 415.123C744.462 414.428 742.794 413.635 741.176 412.746C749.74 415.123 759.018 417.261 767.582 414.41C781.379 410.607 791.847 399.675 799.459 388.03C813.494 367.116 823.248 343.826 833.473 320.774C845.367 292.26 858.927 264.213 869.632 234.982C872.015 228.09 874.631 220.248 873.918 212.167Z" fill="white"/>
<path d="M858.455 207.177C847.988 199.096 837.284 191.254 825.389 185.313C820.631 183.411 815.873 181.272 811.116 179.847C823.964 186.593 835.879 194.982 846.561 204.8C843.231 204.087 839.663 203.374 836.332 202.423C824.438 192.917 813.02 182.223 799.218 175.569C794.716 173.58 790.11 171.835 785.421 170.34C799.456 176.757 810.637 187.689 822.535 197.433C826.104 200.522 831.099 200.047 834.429 202.661C836.094 205.512 835.38 209.311 834.905 212.409C831.337 230.946 823.248 248.294 816.112 265.643C801.601 298.915 788.279 333.136 769.961 364.507C761.636 378.29 751.644 392.312 735.947 398.016C727.622 401.581 718.347 400.868 709.776 399.2C711.679 400.151 713.582 400.626 715.485 401.577C690.982 411.084 668.621 426.293 642.691 432.472C648.877 435.323 655.299 437.462 661.723 439.839C686.701 433.422 708.111 418.689 731.424 408.228C729.521 407.043 727.138 406.326 725.239 405.376C727.38 405.376 729.283 406.56 731.662 406.802C746.891 410.129 762.35 403.237 772.579 392.067C785.187 378.046 793.751 360.935 802.078 344.299C815.875 314.83 828.249 284.886 841.092 255.179C846.087 243.297 851.083 231.176 853.938 218.581C854.652 214.299 855.841 209.788 853.7 205.985C855.173 206.74 856.8 207.148 858.455 207.177Z" fill="black"/>
<path d="M846.561 204.801C835.879 194.984 823.964 186.597 811.116 179.852C807.286 178.074 803.306 176.641 799.222 175.57C813.257 182.22 824.438 192.918 836.336 202.424C839.663 203.613 843.231 204.084 846.561 204.801Z" fill="white"/>
<path d="M834.904 212.643C835.38 209.554 836.09 205.751 834.428 202.895C830.86 200.044 825.865 200.519 822.534 197.667C810.64 188.161 799.463 177.229 785.42 170.575C780.826 168.821 776.14 167.313 771.385 166.059C787.323 172.475 798.266 186.26 812.302 195.528C815.156 197.192 816.346 200.519 816.108 203.609C815.87 212.402 813.016 220.957 810.399 229.275C803.024 250.902 793.985 271.819 784.945 292.728C772.337 321.243 760.442 350.716 741.411 375.669C731.183 389.215 713.816 398.246 696.689 394.918C694.548 394.68 697.165 395.394 697.874 395.868C672.658 404.899 649.584 419.634 623.177 424.862C629.601 427.713 636.024 430.566 642.684 432.943C668.614 426.763 690.975 411.792 715.478 402.048C713.575 401.098 711.671 400.622 709.768 399.671C718.332 401.334 727.61 402.048 735.94 398.487C751.64 392.783 761.632 378.524 769.954 364.977C788.271 333.365 801.597 299.385 816.105 266.114C823.248 248.529 831.333 231.18 834.904 212.643Z" fill="white"/>
<path d="M816.111 203.612C816.349 200.523 815.16 197.196 812.305 195.531C798.27 186.263 787.327 172.483 771.388 166.062C765.916 164.161 760.445 162.26 754.735 161.31C769.722 166.776 781.616 178.183 792.797 189.353C797.793 194.343 796.842 201.948 795.889 208.366C792.321 228.091 784.233 246.628 777.096 265.165C766.867 290.356 756.396 315.309 744.029 339.55C736.655 353.333 728.801 367.355 717.623 378.525C708.108 387.794 694.552 393.26 681.227 391.121C679.085 390.883 676.706 390.171 674.57 391.121C651.257 399.676 628.895 411.559 604.392 416.55C610.578 419.401 616.762 422.253 623.186 424.867C649.592 419.639 672.667 404.904 697.883 395.873C697.168 395.398 694.552 394.689 696.697 394.923C713.825 398.25 731.191 389.22 741.42 375.674C760.451 350.721 772.345 321.251 784.953 292.733C793.993 271.82 803.032 250.907 810.407 229.28C813.019 220.96 815.873 212.405 816.111 203.612Z" fill="black"/>
<path d="M792.799 189.35C781.856 178.18 769.728 166.773 754.737 161.307C748.519 159.526 742.147 158.332 735.706 157.742C750.693 161.545 763.777 171.526 773.054 183.646C778.05 190.063 777.812 198.619 776.623 206.224C774.006 222.622 768.297 238.307 762.588 253.754C753.786 277.044 744.27 300.097 733.803 322.436C725.953 338.834 717.627 355.232 706.208 369.491C700.261 376.858 692.886 383.274 684.084 386.602C675.521 390.167 666.005 389.217 656.965 388.503C665.959 387.426 674.375 383.514 680.992 377.334C692.886 366.402 700.975 352.143 708.349 338.121C717.389 320.772 725.24 302.711 732.614 284.411C741.892 260.884 751.17 237.356 756.403 212.64C758.068 202.892 759.733 192.677 755.452 183.409C747.601 167.724 730.712 157.742 713.584 155.841C704.361 155.361 695.113 155.838 685.989 157.267C703.354 155.841 722.623 160.594 732.614 175.804C741.892 188.875 738.8 205.748 735.944 220.482C729.288 249.475 718.345 277.281 707.16 304.611C697.644 326.475 687.892 348.339 673.856 367.589C666.719 377.57 656.727 386.838 644.119 389.215C626.754 395.157 610.105 403.236 591.784 406.563C595.829 404.186 600.11 402.523 604.392 400.384C612.718 395.631 618.665 387.788 624.375 380.421C636.27 363.31 645.075 344.06 653.159 324.811C662.916 301.045 671.476 276.567 677.186 251.614C680.754 234.978 683.843 217.392 680.04 200.518C678.137 191.725 672.666 183.17 664.577 178.892C655.299 174.139 644.356 173.901 634.128 174.376C619.616 175.326 604.867 177.228 590.356 176.991C569.656 177.228 549.915 170.811 530.17 165.821C512.091 161.068 493.774 157.74 475.218 157.503C457.377 157.028 439.772 158.929 422.169 160.118C393.147 162.733 363.648 162.257 334.626 160.118C328.184 161.578 321.83 163.403 315.595 165.584C340.811 167.01 366.023 167.485 391.243 165.584C414.794 163.921 438.344 160.831 461.895 162.257C490.679 163.441 517.795 173.902 545.394 181.032C560.857 185.072 576.795 185.314 592.734 184.834C605.818 184.597 618.905 182.695 631.985 184.597C640.548 185.781 649.113 189.112 654.346 196.004C665.765 211.689 663.386 232.841 661.003 250.902C657.673 270.627 651.964 290.114 645.54 308.889C636.262 334.794 625.796 360.46 611.046 383.75C604.623 393.498 597.486 403.237 587.02 409.179C592.491 412.03 598.438 414.407 604.148 417.021C628.894 412.272 651.018 400.152 674.331 391.593C676.472 390.408 678.851 391.355 680.988 391.593C694.31 393.494 707.869 388.266 717.384 378.997C728.565 367.827 736.416 353.806 743.791 340.022C756.161 315.781 766.627 290.828 776.857 265.637C783.994 247.1 792.086 228.559 795.651 208.837C797.08 201.948 797.794 194.344 792.799 189.35Z" fill="white"/>
<path d="M773.292 183.649C764.014 171.292 750.93 161.548 735.943 157.745C728.711 156.523 721.392 155.887 714.057 155.844C731.185 157.745 748.071 167.489 755.925 183.412C760.211 192.68 758.304 203.137 756.876 212.643C751.643 237.358 742.365 261.124 733.088 284.414C725.713 302.476 717.859 320.537 708.823 338.124C701.448 352.146 693.36 366.405 681.465 377.337C674.943 383.655 666.478 387.59 657.439 388.506C666.478 389.22 675.994 390.17 684.558 386.605C693.359 383.278 700.972 376.857 706.681 369.494C717.862 355.235 726.426 338.837 734.277 322.439C744.744 299.861 754.259 277.047 763.061 253.757C768.771 238.309 774.481 222.62 777.097 206.222C778.049 198.621 778.287 190.066 773.292 183.649Z" fill="black"/>
<path d="M732.85 175.57C722.622 160.356 703.352 155.607 686.225 157.033C684.02 157.389 681.772 157.389 679.568 157.033C679.568 159.172 675.282 157.27 673.858 158.217C651.735 161.544 628.902 162.97 606.774 158.217C588.457 154.89 570.139 151.567 551.584 150.612C538.738 150.374 525.892 150.374 513.284 151.087C524.465 151.563 535.884 151.801 547.064 153.464C572.042 156.553 596.307 165.11 621.523 164.872C632.466 164.634 643.647 163.446 654.59 162.257C667.198 160.832 680.52 158.693 692.89 162.257C703.595 165.109 713.348 172.714 717.393 183.408C720.961 193.156 720.485 203.846 719.296 214.065C717.393 228.562 713.348 242.821 708.829 256.843C701.651 279.424 693.152 301.564 683.375 323.148C673.859 343.587 663.868 364.737 647.929 381.136C640.555 388.741 630.33 392.305 620.096 394.207C628.898 389.454 635.325 381.611 641.268 373.768C653.876 355.707 663.154 335.268 671.717 315.068C680.757 292.728 689.083 270.155 695.03 246.861C699.316 229.279 703.119 210.976 699.787 192.914C697.884 182.696 690.748 173.427 680.994 169.625C669.099 164.396 655.778 166.06 643.408 167.248C627.708 168.911 612.007 170.812 596.306 169.862C572.28 167.723 549.443 159.406 525.654 156.079C499.011 151.797 472.125 153.94 445.486 156.079C415.274 158.93 384.586 157.98 354.374 155.603C347.938 156.469 341.576 157.82 335.343 159.644C364.365 162.02 393.864 162.495 422.886 159.644C440.486 158.459 458.332 156.554 475.935 157.029C494.49 157.267 513.049 160.594 530.887 165.346C550.632 170.337 570.373 176.754 591.073 176.516C605.822 176.754 620.333 174.853 634.844 173.902C645.073 173.188 656.016 173.426 665.294 178.418C673.382 182.699 678.854 191.013 680.757 200.044C684.563 216.917 681.233 234.503 677.903 251.139C671.955 276.092 663.392 300.571 653.876 324.336C645.787 343.586 636.986 362.836 625.092 379.947C619.382 387.314 613.197 395.16 605.109 399.909C601.065 402.048 596.783 403.712 592.501 406.089C610.58 403 627.471 394.919 644.836 388.74C657.444 386.363 667.198 377.094 674.572 367.113C688.608 347.864 698.599 326 707.877 304.136C719.296 276.806 730.001 249 736.661 220.007C739.273 205.751 742.128 188.64 732.85 175.57Z" fill="black"/>
<path d="M717.149 183.412C713.105 172.956 703.589 165.113 692.646 162.262C680.038 158.935 666.954 160.836 654.346 162.262C643.38 163.732 632.341 164.605 621.28 164.876C595.826 164.876 571.799 156.559 546.821 153.469C535.64 151.805 524.459 151.567 513.041 151.092C496.627 151.33 480.451 152.993 464.275 153.943C459.041 154.657 453.808 154.181 448.574 153.706C437.588 153.345 426.629 152.394 415.746 150.854C408.133 150.379 400.283 150.141 392.674 151.092C411.468 152.993 430.26 154.181 449.054 154.894C423.838 156.558 398.384 154.657 373.168 152.518C366.587 152.966 360.059 154 353.661 155.607C383.873 157.984 414.561 158.934 444.772 156.082C471.416 154.181 498.301 151.801 524.941 156.082C548.73 159.409 571.566 167.728 595.593 169.866C611.294 170.816 627.236 168.916 642.695 167.251C655.065 166.067 668.625 164.4 680.281 169.628C690.038 173.431 696.933 182.699 699.074 192.918C702.643 210.979 698.598 229.279 694.317 246.865C688.37 270.154 680.044 292.732 671.004 315.071C662.44 335.272 653.404 355.71 640.555 373.772C634.607 381.615 627.947 389.22 619.383 394.21C629.375 392.309 639.842 388.744 647.216 381.139C663.154 364.741 673.146 343.59 682.662 323.152C692.439 301.567 700.938 279.427 708.116 256.846C712.636 242.825 716.442 228.566 718.583 214.069C720.48 203.85 720.956 193.156 717.149 183.412Z" fill="white"/>
<path d="M674.092 158.458C675.519 157.508 679.563 159.409 679.801 157.274C661.722 156.09 643.642 153.947 625.563 153.709C641.263 155.611 657.206 157.75 672.903 158.225C644.594 161.79 616.761 154.423 588.928 151.575C576.558 151.099 564.188 150.391 551.814 150.861C570.369 152.046 588.686 155.377 607.004 158.467C628.893 162.973 651.968 161.785 674.092 158.458Z" fill="white"/>
<path d="M672.665 158.217C656.726 157.504 641.022 155.365 625.325 153.701C613.197 152.517 600.822 151.8 588.69 151.562C616.523 154.418 644.594 161.785 672.665 158.217Z" fill="black"/>
<path d="M654.823 195.532C649.352 188.641 640.788 185.314 632.462 184.125C619.377 182.461 606.29 184.362 593.21 184.362C577.272 184.6 561.334 184.6 545.871 180.56C518.276 173.43 491.156 162.978 462.372 161.785C438.821 160.359 415.27 163.449 391.72 165.112C366.504 167.013 341.291 166.538 316.071 165.112C309.846 166.894 303.73 169.037 297.753 171.528C326.614 173.35 355.575 172.794 384.344 169.865C415.27 166.538 446.909 164.637 477.12 172.954C496.389 177.707 514.944 185.55 534.452 190.302C555.386 195.055 577.038 194.584 598.444 194.818C608.436 195.294 619.144 195.768 627.942 200.997C636.268 205.75 641.026 214.544 643.171 223.337C646.501 237.834 645.074 252.806 642.695 267.303C639.779 283.593 635.644 299.641 630.325 315.313C622.712 338.127 613.673 360.225 602.254 381.38C595.351 393.734 587.5 405.855 576.557 415.123C580.363 413.222 583.932 410.841 587.738 408.944C597.967 403.002 605.338 393.259 611.765 383.515C626.514 360.225 636.981 334.558 646.259 308.654C652.916 289.642 658.629 270.392 661.721 250.667C663.863 232.369 666.242 211.217 654.823 195.532Z" fill="black"/>
<path d="M642.929 223.338C641.026 214.307 636.031 205.514 627.701 200.998C618.899 195.77 608.194 195.057 598.202 194.819C576.793 194.581 555.145 195.057 534.21 190.303C514.704 185.551 496.386 177.945 476.879 172.955C446.667 164.638 415.028 166.539 384.103 169.866C355.348 173.032 326.366 173.589 297.511 171.529C291.088 173.906 284.665 176.282 278.479 179.134C306.55 180.319 334.859 179.848 362.93 176.52C387.433 173.905 412.411 171.054 436.913 175.094C464.27 178.897 489.248 191.254 515.416 198.859C539.919 205.751 565.61 205.751 590.589 208.841C600.58 210.267 610.809 214.545 616.995 222.862C624.131 232.844 626.034 245.677 626.034 257.798C625.796 285.603 617.946 312.933 608.906 339.074C600.342 362.84 590.351 386.367 576.078 407.518C571.884 413.806 566.93 419.553 561.328 424.629C566.324 421.54 571.32 418.45 576.078 415.361C587.02 406.092 594.633 393.972 601.77 381.615C613.188 360.464 622.228 338.362 629.841 315.547C635.074 299.862 639.598 283.935 642.211 267.537C644.832 252.807 646.26 237.835 642.929 223.338Z" fill="white"/>
<path d="M617.236 222.862C611.051 214.545 600.822 210.267 590.83 208.841C565.852 205.752 540.16 205.752 515.658 198.859C489.486 191.254 464.511 178.897 437.154 175.094C412.651 171.054 387.674 173.91 363.172 176.52C335.1 179.847 306.792 180.322 278.721 179.134C272.298 181.749 266.113 184.6 259.927 187.452C280.628 187.927 301.558 188.165 322.254 186.026C343.189 184.363 364.123 180.56 385.294 180.085C404.482 179.349 423.648 182.004 441.912 187.927C462.847 194.348 482.354 204.563 503.526 210.746C520.14 214.931 536.976 218.186 553.954 220.494C565.848 222.395 578.457 224.059 588.924 230.713C598.201 236.654 603.673 246.873 606.052 257.329C609.382 272.776 608.193 288.7 605.576 304.384C600.58 331.952 591.541 358.569 580.122 384.236C571.558 402.773 561.804 421.313 546.817 435.331C551.813 432.004 556.809 428.201 561.804 424.637C567.463 419.614 572.425 413.858 576.557 407.523C590.83 386.609 600.822 362.844 609.386 339.079C618.426 312.933 626.276 285.845 626.514 257.802C626.276 245.677 624.373 233.081 617.236 222.862Z" fill="black"/>
<path d="M605.818 257.084C603.677 246.628 597.968 236.404 588.69 230.467C578.223 223.817 565.853 222.15 553.72 220.249C536.83 217.634 519.94 214.783 503.292 210.501C482.358 204.322 462.613 194.103 441.679 187.687C423.412 181.78 404.248 179.125 385.062 179.844C363.89 180.557 343.193 184.126 322.022 185.786C301.322 187.925 280.63 187.687 259.695 187.211C253.509 190.063 247.325 193.153 241.377 196.242C263.025 196.718 284.673 196.242 306.084 193.627C335.344 190.538 364.842 183.88 394.34 188.399C425.501 192.44 452.858 208.603 481.878 219.77C500.433 226.186 519.702 230.702 538.733 235.454C552.055 238.781 566.09 242.584 575.606 253.037C586.787 265.153 589.403 282.506 589.166 298.428C588.69 322.669 582.509 346.197 574.655 369.011C564.663 396.341 552.769 424.146 532.311 445.297C537.068 441.97 541.588 438.405 546.346 434.841C561.333 420.582 571.086 402.045 579.65 383.745C591.069 358.317 600.351 331.462 605.104 303.894C607.959 288.455 609.149 272.532 605.818 257.084Z" fill="white"/>
<path d="M575.845 253.044C566.329 242.588 552.056 238.785 538.972 235.462C519.941 230.709 500.672 226.193 482.117 219.777C453.094 208.845 425.737 192.447 394.574 188.407C365.076 183.891 335.574 190.546 306.317 193.635C284.907 196.249 263.259 196.724 241.611 196.249C235.426 199.339 229.241 202.429 223.293 205.756C245.561 206.265 267.835 204.991 289.899 201.947C318.921 197.907 348.182 191.253 377.442 196.005C409.319 200.758 436.914 218.583 465.937 231.178C483.302 237.829 500.907 243.774 518.51 249.715C529.929 253.756 541.823 258.033 551.338 265.876C559.189 272.055 564.423 281.089 567.515 290.591C572.748 307.702 571.801 325.764 569.18 343.35C565.612 364.03 559.188 383.989 551.101 403.238C542.537 422.488 532.783 441.976 517.796 457.185C522.8 453.383 527.791 449.345 532.787 445.305C553.245 423.916 565.139 396.348 575.131 369.018C582.982 346.203 589.166 322.676 589.642 298.436C589.642 282.753 587.025 265.402 575.845 253.044Z" fill="black"/>
<path d="M808.974 446.969C805.406 445.068 801.6 443.404 798.032 441.265C785.424 449.82 771.626 457.188 757.114 461.945C763.437 462.578 769.799 462.737 776.146 462.42C787.76 458.835 798.812 453.633 808.974 446.969Z" fill="black"/>
<path d="M798.032 441.503C793.987 439.84 789.943 437.221 785.903 435.799C770.916 445.547 755.216 454.812 738.087 460.278C744.311 461.264 750.586 461.899 756.881 462.179C771.86 457.426 785.424 450.058 798.032 441.503Z" fill="white"/>
<path d="M448.812 153.943C437.869 152.758 426.926 151.091 415.984 151.091C426.867 152.631 437.826 153.583 448.812 153.943Z" fill="black"/>
<path d="M449.288 154.893C430.495 154.18 411.702 152.992 392.909 151.091C386.374 150.856 379.833 151.334 373.402 152.517C398.618 154.894 424.072 156.794 449.288 154.893Z" fill="black"/>
<path d="M567.28 290.831C564.188 281.325 558.955 272.532 551.104 266.116C541.588 258.273 529.694 254 518.276 249.956C500.676 244.014 483.068 238.073 465.702 231.419C436.68 219.061 409.085 201.237 377.209 196.246C347.948 191.255 318.688 198.147 289.666 202.187C267.601 205.236 245.326 206.508 223.057 205.99C216.873 209.317 210.687 212.406 204.74 215.738C220.63 216.211 236.534 215.496 252.318 213.598C282.292 210.509 311.789 201.241 342.002 202.191C362.702 202.666 382.681 209.083 401.002 218.113C417.654 226.194 433.592 235.937 450.245 243.78C464.28 249.959 478.316 256.138 492.589 262.317C505.197 267.783 517.805 273.249 528.748 281.804C541.832 291.785 549.448 307.709 551.585 323.869C556.104 357.615 546.113 391.362 532.791 422.257C525.179 438.893 516.139 455.291 503.293 468.6C508.288 465.035 512.809 461.233 517.566 457.43C532.553 442.216 542.544 422.97 550.871 403.483C558.959 384.234 565.382 364.271 568.95 343.595C571.8 326.241 572.752 307.942 567.28 290.831Z" fill="white"/>
<path d="M551.817 323.865C549.676 307.704 542.06 291.782 528.98 281.8C518.038 273.245 505.43 267.779 492.822 262.313C478.786 256.133 464.75 249.955 450.477 243.776C433.587 235.933 417.887 226.193 401.234 218.109C382.917 209.078 362.696 202.661 342.234 202.187C311.785 201.236 282.524 210.504 252.55 213.594C236.767 215.497 220.863 216.212 204.972 215.733C198.787 219.06 192.602 222.384 186.655 225.715C206.995 226.19 227.328 224.518 247.317 220.725C276.101 215.734 305.123 206.466 334.86 210.268C366.503 213.833 393.618 232.37 420.499 248.055C446.671 262.789 474.262 275.147 499.478 291.545C515.58 301.603 527.106 317.552 531.593 335.986C538.016 362.366 533.02 390.171 524.936 415.6C516.848 439.127 505.905 462.179 488.539 480.242C493.773 476.439 498.768 472.399 503.526 468.359C516.372 455.288 525.412 438.652 533.025 422.016C546.109 391.36 556.1 357.612 551.817 323.865Z" fill="black"/>
<path d="M531.598 335.981C527.312 317.681 515.183 301.521 499.483 291.539C474.267 275.141 446.91 262.546 420.504 248.049C393.623 232.364 366.504 214.069 334.864 210.262C305.128 206.46 276.344 215.728 247.321 220.719C227.317 224.394 206.996 226.066 186.66 225.709C180.95 228.561 175.479 231.889 169.769 234.74C168.584 235.216 167.39 234.265 166.439 234.027C197.84 252.088 221.153 280.369 240.898 309.838C263.26 344.059 283.718 381.134 288.476 422.247C289.661 436.506 288.952 451.241 283.242 464.312C279.198 473.105 272.299 481.66 262.308 484.037C249.462 487.126 236.854 480.71 226.625 474.055C234.713 480.472 243.277 486.65 251.841 492.592C259.691 496.632 268.255 500.435 277.295 499.484C287.052 498.77 295.374 491.879 300.132 483.561C306.789 472.154 308.934 458.608 308.696 445.537C308.458 422.723 301.322 400.624 292.52 379.945C281.815 356.179 268.255 333.84 253.269 312.451C231.621 281.556 204.977 252.563 170.959 235.452C180.817 235.49 190.667 234.934 200.458 233.788C233.286 231.173 264.212 218.34 297.04 215.964C311.313 215.116 325.615 217.054 339.146 221.668C362.935 229.749 383.394 244.482 404.328 257.791C428.354 272.288 452.619 286.306 475.218 302.704C487.588 311.497 498.769 322.191 506.144 335.737C512.566 347.145 515.659 360.216 516.61 373.048C518.276 400.378 511.139 427.709 499.72 452.424C493.063 466.921 484.491 480.705 472.601 491.637C478.244 487.945 483.647 483.898 488.777 479.521C506.143 461.459 517.32 438.407 525.174 414.879C533.258 390.17 538.02 362.364 531.598 335.981Z" fill="white"/>
<path d="M505.431 336.222C498.294 322.675 486.875 311.981 474.505 303.188C451.905 286.79 427.403 272.769 403.614 258.276C382.68 244.967 362.222 229.995 338.433 222.153C325.111 217.4 310.6 215.736 296.327 216.449C263.498 218.826 232.573 231.663 199.744 234.273C189.987 235.457 180 235.698 170.246 235.936C204.502 253.047 230.908 282.041 252.556 312.936C267.543 334.324 281.098 356.664 291.807 380.429C300.846 401.109 307.745 423.207 307.983 446.021C308.221 459.092 306.08 472.4 299.419 484.046C294.662 492.363 286.335 499.259 276.582 499.968C267.543 500.918 258.983 497.354 251.128 493.076C258.894 498.644 266.998 503.725 275.393 508.29C285.151 512.805 297.041 514.232 306.557 508.29C320.117 499.497 325.588 482.861 327.257 467.414C329.874 439.133 321.072 411.328 309.178 386.137C299.743 366.92 288.928 348.411 276.816 330.756C257.784 302.95 235.899 276.334 208.304 256.371C198.99 249.045 188.752 242.972 177.855 238.309C193.084 240.924 207.115 249.004 219.485 258.034C261.592 288.216 292.755 330.518 318.922 374.722C332.006 397.77 342.949 422.49 346.279 448.869C348.421 467.168 347.23 486.418 338.429 502.816C333.908 511.371 326.059 518.976 316.305 521.115C310.12 522.541 304.177 521.353 298.226 519.931C305.515 523.454 313.071 526.394 320.825 528.724C334.147 531.339 347.468 523.971 354.605 512.801C368.165 492.122 368.64 465.746 364.121 442.219C358.411 414.413 344.614 388.743 329.389 364.981C308.93 333.849 285.618 303.905 257.546 279.189C238.991 262.791 218.532 246.155 193.792 240.689C195.696 240.451 197.837 240.927 199.74 240.451C224.956 235.698 248.983 225.954 274.437 223.103C289.166 221.419 304.085 222.879 318.208 227.385C346.751 236.891 370.068 256.616 394.808 272.776C412.174 284.184 429.302 296.304 445.716 309.137C464.748 323.396 482.831 340.982 491.153 363.797C501.382 390.889 498.527 421.309 489.726 448.164C482.589 468.602 472.36 489.041 455.712 503.537C461.421 499.972 466.892 496.17 472.126 492.13C483.783 481.198 492.347 467.414 499.245 452.918C510.664 428.202 517.801 400.872 516.135 373.542C514.944 360.701 511.852 347.867 505.431 336.222Z" fill="black"/>
<path d="M491.394 364.029C483.068 341.215 464.75 323.865 445.957 309.369C429.543 296.535 412.414 284.415 395.049 273.008C370.309 256.61 346.992 237.123 318.449 227.616C304.326 223.11 289.407 221.651 274.678 223.335C249.224 226.186 224.959 235.93 199.981 240.683C198.078 240.92 195.936 240.683 194.033 240.92C218.773 246.386 239.232 263.022 257.787 279.42C286.096 304.136 309.171 334.08 329.63 365.213C344.859 388.978 358.414 414.407 364.362 442.451C369.119 465.978 368.406 492.358 354.846 513.033C347.709 524.203 334.387 531.57 321.066 528.956C328.144 531.507 335.485 533.26 342.952 534.184C357.225 534.184 369.124 523.965 375.543 511.844C384.344 496.16 386.961 477.622 385.771 459.799C384.106 436.033 375.542 413.456 364.124 392.781C349.85 366.877 331.771 343.111 312.74 320.773C298.859 304.648 283.661 289.704 267.303 276.093C248.748 259.933 227.338 244.723 202.36 241.158C223.295 238.781 243.752 247.1 260.643 258.741C294.887 283.133 325.415 312.351 351.278 345.483C368.643 367.348 385.292 390.637 395.525 416.779C405.992 443.396 408.847 474.291 398.379 501.384C392.67 516.832 381.251 532.517 364.124 535.844C370.66 536.198 377.215 535.719 383.63 534.418C398.859 528.952 409.084 515.169 415.273 500.909C427.402 472.865 426.216 440.307 415.035 412.268C405.758 388.741 390.77 368.064 374.832 348.577C356.991 327.189 337.959 306.988 316.55 288.927C300.611 275.143 284.672 260.883 265.88 250.902C250.812 242.259 233.482 238.366 216.161 239.733C234.24 233.791 252.796 228.325 271.826 228.563C297.518 228.563 321.069 240.92 341.528 255.179C364.364 272.053 387.44 288.451 409.564 306.275C429.546 323.624 450.718 340.734 464.516 363.786C479.265 388.027 482.596 417.971 476.886 445.301C471.415 471.205 460.234 497.347 439.062 513.982C445.01 511.368 450.243 507.566 455.714 504.001C472.367 489.504 482.596 469.303 489.728 448.627C498.771 421.54 501.623 391.121 491.394 364.029Z" fill="white"/>
<path d="M464.512 363.552C450.715 340.504 429.543 323.389 409.56 306.041C387.674 288.217 364.362 271.819 341.524 254.945C321.065 240.686 297.514 228.091 271.822 228.329C252.791 228.329 234.236 233.795 216.156 239.498C233.284 237.835 250.888 242.113 265.875 250.668C284.668 260.65 300.607 274.909 316.545 288.692C337.717 306.754 356.986 326.954 374.827 348.343C391.004 367.592 405.991 388.506 415.031 412.034C426.211 440.077 427.401 472.636 415.269 500.674C409.083 514.933 398.854 528.718 383.626 534.184C390.199 533.412 396.663 531.897 402.894 529.668C413.837 524.202 422.163 514.696 428.11 504.239C444.524 475.008 446.904 438.409 435.247 407.035C425.018 378.755 405.035 355.464 384.818 333.6C372.465 320.35 359.444 307.738 345.805 295.814C326.774 280.367 308.691 263.493 287.761 251.135C268.729 239.49 245.892 234.024 223.769 238.064C246.84 230.697 272.773 231.414 294.659 242.346C317.021 253.04 336.051 269.438 355.321 284.648C379.047 302.851 401.245 322.96 421.692 344.775C434.062 358.321 445.243 373.055 452.142 390.166C467.605 426.289 462.608 470.017 441.199 502.813C436.203 511.131 429.305 517.786 421.216 523.252C427.438 520.817 433.412 517.793 439.058 514.221C460.229 497.347 471.41 471.206 476.882 445.54C482.592 417.499 479.262 387.793 464.512 363.552Z" fill="black"/>
<path d="M421.455 344.541C401.069 322.663 378.866 302.55 355.084 284.415C335.815 269.201 316.784 252.803 294.422 242.112C272.536 231.18 246.606 230.467 223.532 237.83C245.655 233.79 268.489 239.256 287.524 250.902C308.695 263.497 326.775 280.133 345.568 295.58C359.209 307.503 372.231 320.115 384.582 333.366C404.803 354.993 424.785 378.279 435.01 406.801C446.667 438.172 444.288 474.77 427.874 504.005C421.926 514.462 413.601 523.968 402.658 529.434C409.08 528.008 415.028 525.394 420.975 522.784C429.113 517.587 435.949 510.595 440.958 502.345C462.368 469.549 467.364 426.059 451.901 389.698C444.768 373.059 433.825 358.086 421.455 344.541Z" fill="white"/>
<path d="M351.04 345.256C325.178 312.123 294.649 282.906 260.405 258.513C243.515 246.868 223.056 238.55 202.123 240.931C227.101 244.257 248.511 259.468 267.066 275.866C283.242 289.649 298.709 304.38 312.502 320.544C331.534 343.121 349.617 366.887 363.886 392.552C375.305 413.232 383.869 435.805 385.534 459.57C386.72 477.394 384.107 495.931 375.305 511.616C368.883 523.732 356.75 533.717 342.715 533.955C349.697 535.226 356.791 535.783 363.886 535.619C381.015 532.292 392.429 516.606 398.142 501.159C408.609 474.067 405.755 443.172 395.288 416.554C385.058 390.407 368.644 367.355 351.04 345.256Z" fill="black"/>
<path d="M318.924 374.722C292.994 330.518 261.593 288.217 219.487 258.035C207.117 249.004 193.082 240.923 177.857 238.31C188.802 242.881 199.052 248.96 208.31 256.371C235.667 276.334 257.553 302.951 276.821 330.756C288.95 348.339 300.134 366.641 309.174 386.13C321.069 411.321 329.874 439.126 327.253 467.407C325.588 482.854 320.355 499.489 306.553 508.283C297.275 514.225 285.143 512.799 275.39 508.283C282.586 512.709 290.055 516.678 297.751 520.166C303.699 521.592 309.88 523.018 315.831 521.351C325.588 519.212 333.431 511.603 337.955 503.051C346.994 486.653 348.183 467.166 345.805 449.104C342.952 422.728 332.009 397.774 318.924 374.722Z" fill="white"/>
<path d="M240.663 310.08C220.918 280.373 197.605 252.093 166.204 234.269L165.966 234.031C197.129 257.321 219.495 290.117 238.76 323.389C249.94 343.351 259.694 364.502 265.166 386.842C268.972 403.478 270.875 420.822 267.069 437.699C264.69 447.681 260.412 457.662 251.84 463.845C248.669 466.092 245.064 467.654 241.254 468.432C237.445 469.209 233.515 469.185 229.716 468.36C218.059 466.221 208.068 459.329 198.315 452.675C207.592 460.28 216.87 467.648 226.386 474.777C236.853 481.669 249.457 487.848 262.069 484.759C272.06 482.382 278.959 473.827 283.003 465.034C288.713 451.725 289.426 436.991 288.237 422.969C283.479 381.376 263.021 344.302 240.663 310.08Z" fill="black"/>
<path d="M238.757 323.385C219.488 290.113 197.126 257.555 165.963 234.028C163.334 232.724 160.861 231.13 158.588 229.275C184.518 250.901 203.787 279.419 220.677 308.65C237.092 338.357 250.652 371.391 249.22 406.088C248.506 418.921 245.176 432.468 236.136 441.973C233.238 444.915 229.743 447.201 225.885 448.676C222.027 450.152 217.897 450.784 213.774 450.528C198.074 449.102 184.514 439.834 172.144 430.565C171.906 431.75 175.236 432.229 173.571 433.18C146.69 453.143 126.469 482.136 95.0679 495.683C102.442 493.782 109.341 491.168 116.478 488.553C140.98 476.196 159.064 454.807 179.994 437.696C181.897 439.121 183.8 440.785 185.703 441.977C170.716 455.049 156.205 468.832 139.077 479.055C146.214 476.441 153.112 472.876 160.012 469.308C170.618 462.155 180.788 454.378 190.469 446.018C191.684 446.838 192.802 447.795 193.799 448.869C189.993 452.672 184.997 455.286 180.715 458.376C185.948 456.236 190.472 453.147 195.464 450.533C196.457 451.188 197.411 451.902 198.318 452.672C207.834 459.322 217.825 466.218 229.72 468.356C237.332 470.02 245.658 468.594 251.843 463.841C260.169 457.662 264.689 447.681 267.072 437.696C270.879 420.822 268.975 403.474 265.169 386.838C259.691 364.503 249.938 343.351 238.757 323.385Z" fill="white"/>
<path d="M-45.5197 405.379C-33.6257 392.784 -21.9688 380.188 -8.40511 369.018C7.77118 355.472 27.9917 345.253 49.6395 346.916C68.908 348.58 87.7015 355.234 107.208 352.858C117.019 352.03 126.213 347.734 133.138 340.742C141.464 332.661 145.746 321.254 147.887 309.847C152.173 285.131 146.222 259.939 136.706 237.125C126.7 213.93 112.325 192.872 94.362 175.098C88.1775 169.632 82.2337 163.928 75.5686 159.175C89.8417 171.771 101.261 187.219 110.3 203.854C122.67 226.669 130.759 252.572 129.094 278.952C128.142 295.826 122.195 313.412 109.111 324.819C94.6001 337.177 74.1415 338.128 56.062 337.415C44.4051 337.177 32.5112 335.513 21.0923 338.365C8.48427 341.216 -3.17259 347.158 -13.4014 354.763C-25.0583 363.318 -35.2872 373.062 -45.0446 383.519V405.383L-45.5197 405.379Z" fill="white"/>
<path d="M-45.5197 427.482C-26.4882 407.995 -9.12277 386.605 13.4806 370.921C28.9438 359.989 48.6883 354.047 67.4809 357.85C87.4635 362.131 106.257 371.871 126.953 371.396C133.688 371.437 140.315 369.701 146.163 366.362C152.011 363.024 156.873 358.202 160.257 352.384C170.724 333.846 170.486 311.27 166.443 290.832C157.879 251.619 136.468 215.971 108.398 187.691C103.641 183.409 99.1204 179.136 93.8869 175.333C111.698 193.233 126.052 214.26 136.231 237.36C145.989 260.175 151.694 285.37 147.412 310.082C145.271 321.252 140.99 332.659 132.663 340.977C125.764 348.106 116.487 351.909 106.733 353.093C87.2264 355.47 68.4329 348.811 49.1644 347.152C27.5166 345.726 7.29608 355.945 -8.8802 369.253C-22.2022 380.185 -34.0962 393.019 -45.9948 405.614V427.478L-45.5197 427.482Z" fill="black"/>
<path d="M-45.5167 383.516C-35.525 373.297 -25.2962 363.315 -13.8737 354.76C-3.64485 347.155 8.01205 340.977 20.62 338.362C32.0389 335.511 43.9328 336.936 55.5897 337.412C73.9071 338.125 94.1277 337.174 108.639 324.816C121.723 313.409 127.67 295.823 128.621 278.949C130.287 252.804 122.198 226.666 109.828 203.851C100.788 187.215 89.3694 171.768 75.0962 159.173C69.6248 154.657 64.1534 150.38 58.444 146.102C88.4183 172.956 108.401 212.169 108.872 252.807C108.872 272.77 102.688 293.921 87.4626 307.943C74.8546 319.35 57.7263 323.157 41.312 325.054C28.7041 326.956 15.62 326.48 3.48805 330.758C-14.1117 336.462 -29.1024 347.632 -42.4245 360.227C-43.593 361.192 -44.705 362.224 -45.7548 363.316V383.517L-45.5167 383.516Z" fill="black"/>
<path d="M-45.5195 448.399C-44.5099 447.593 -43.5563 446.719 -42.6653 445.784C-21.2556 426.297 -3.41412 402.769 19.4236 384.708C32.5076 374.251 48.4459 366.171 65.5742 366.171C96.0236 365.933 120.288 390.886 150.738 390.649C156.738 390.676 162.64 389.133 167.858 386.172C173.075 383.212 177.425 378.938 180.474 373.776C187.131 362.844 189.038 350.01 189.276 337.415C189.276 312.462 181.187 288.221 170.244 265.881C158.62 242.137 143.282 220.395 124.808 201.473C119.812 196.483 114.103 191.967 108.87 187.214C136.941 215.495 158.35 251.381 166.914 290.355C170.958 310.794 171.2 333.37 160.73 351.907C157.385 357.759 152.531 362.609 146.674 365.953C140.817 369.297 134.17 371.012 127.425 370.92C106.725 371.395 87.6979 361.413 67.9533 357.373C48.9219 353.571 29.4153 359.512 13.9531 370.444C-8.64665 386.129 -26.0121 407.522 -45.0471 427.006V448.399H-45.5195Z" fill="white"/>
<path d="M-45.5195 497.589C-39.8907 499.195 -34.1712 500.465 -28.3913 501.391C-12.691 503.293 3.01019 497.589 15.8562 488.558C39.8831 471.447 57.4864 447.444 79.6102 427.956C92.4561 416.787 107.681 406.33 125.285 405.855C133.373 406.092 141.937 407.039 148.598 411.796C134.324 409.182 119.813 413.697 107.918 421.778C79.1342 441.503 59.6267 471.922 30.8425 491.885C19.4236 499.966 5.86446 504.956 -8.17157 504.718C-1.09323 505.862 6.06779 506.419 13.2381 506.382C34.6478 504.48 52.2521 490.459 67.2384 476.2C84.1287 460.278 99.1158 441.741 118.146 427.957C127.904 420.828 139.319 415.362 151.689 414.886C153.83 415.6 155.495 417.263 157.398 418.451C140.984 422.491 127.662 433.423 115.768 444.597C98.6398 460.519 83.6536 478.577 64.6221 492.365C55.1064 499.257 43.9219 504.723 32.2696 506.386C39.4464 506.343 46.6073 505.707 53.6793 504.485C72.2347 499.732 87.4599 487.137 101.257 474.066C120.288 456.718 136.94 435.328 160.492 423.921C163.822 421.544 166.201 426.06 168.817 427.248C135.037 447.927 113.627 485.472 75.803 500.445C82.4599 499.495 88.887 497.356 95.3095 495.217C126.711 481.67 146.932 452.673 173.813 432.714C175.478 431.763 172.148 431.05 172.386 430.099C184.756 439.13 198.316 448.636 214.016 450.062C218.147 450.407 222.303 449.817 226.175 448.336C230.046 446.855 233.534 444.52 236.378 441.507C245.417 431.759 248.747 418.458 249.462 405.621C250.889 371.162 237.333 338.128 220.919 308.183C204.267 278.952 184.998 250.434 158.83 228.808C155.5 226.193 152.173 223.817 148.838 220.965C165.967 236.413 179.764 254.945 192.134 274.199C210.927 304.144 226.865 337.415 229.483 373.063C230.435 390.411 228.055 409.424 215.447 422.495C207.597 430.338 195.465 432.001 185.236 429.145C163.112 423.204 145.751 407.519 126.715 395.874C112.204 387.081 94.601 381.139 77.4727 385.179C64.8647 388.031 53.6838 394.686 43.931 402.762C23.9484 419.16 7.77216 439.598 -11.0213 457.422C-21.2501 466.928 -32.193 475.959 -45.277 481.425V491.407C-36.967 490.304 -28.9605 487.557 -21.7261 483.326C6.10701 466.69 25.1375 439.598 48.6884 417.972C61.7724 406.089 76.5216 394.923 94.601 392.543C111.253 390.404 127.668 397.296 141.227 406.564C132.901 402.762 123.627 399.435 114.108 399.435C100.786 399.197 88.1776 404.901 77.7107 412.506C49.1681 433.419 29.4189 463.839 0.634674 484.277C-12.4493 493.546 -28.6256 498.774 -44.8019 496.635V497.585L-45.5195 497.589Z" fill="black"/>
<path d="M-45.5196 363.077C-44.3341 362.126 -43.3784 360.938 -42.1893 359.987C-28.8636 347.63 -13.881 336.222 3.72327 330.515C15.8516 326.233 28.9393 326.712 41.5473 324.811C57.9616 323.147 75.0899 319.107 87.6979 307.699C102.927 293.916 109.108 272.764 109.108 252.564C108.632 211.925 88.649 172.95 58.6792 145.858C52.4938 141.343 46.0712 136.59 39.4107 132.549C58.2041 147.046 71.7632 167.247 80.3278 189.111C89.1295 211.925 92.2218 237.591 85.0852 261.353C80.3278 277.276 70.3361 291.772 56.301 300.565C39.4107 311.26 19.4281 314.587 0.401199 319.34C-16.9642 323.381 -32.1894 332.887 -45.7494 344.293V363.068L-45.5196 363.077Z" fill="white"/>
<path d="M-45.5195 481.908C-32.6735 476.442 -21.4927 467.411 -11.2638 457.904C7.52962 440.081 23.7059 419.88 43.6884 403.244C53.4458 395.164 64.623 388.272 77.231 385.662C94.3593 381.622 111.725 387.801 126.474 396.356C145.505 408.002 162.871 423.924 184.994 429.628C195.461 432.479 207.356 430.812 215.206 422.978C227.814 409.907 230.193 390.895 229.241 373.546C226.624 337.898 210.686 304.627 191.892 274.682C179.522 255.433 165.486 236.895 148.597 221.448C144.076 217.407 139.319 213.605 134.562 209.802C152.641 226.438 167.39 246.639 179.998 267.789C192.368 289.178 202.835 312.231 207.355 336.708C210.209 352.155 210.686 368.079 206.404 383.288C203.312 393.27 197.602 403.013 187.849 407.767C178.571 412.519 167.39 411.569 157.874 408.48C131.703 400.875 111.249 379.249 83.6535 376.159C62.4809 373.545 42.7364 384.715 27.2741 398.261C6.81557 415.844 -9.84036 437.237 -29.8193 455.298C-34.5794 459.647 -39.6711 463.62 -45.0481 467.18V481.908H-45.5195Z" fill="white"/>
<path d="M-45.5195 467.169C-40.1976 463.532 -35.1112 459.563 -30.2907 455.286C-10.3081 437.224 6.34418 415.839 26.8028 398.249C42.0316 384.702 62.0106 373.533 83.1823 376.147C110.777 379.236 131.474 400.862 157.403 408.467C167.16 411.557 178.103 412.508 187.377 407.754C196.893 403.001 202.84 393.02 205.933 383.275C210.453 368.303 209.977 352.143 206.884 336.696C202.364 312.217 192.135 289.165 179.527 267.777C166.914 246.623 152.403 226.426 134.086 209.792C130.993 206.94 127.662 204.326 124.328 201.711C142.856 220.588 158.2 242.339 169.765 266.119C180.708 288.458 188.796 312.698 188.796 337.652C188.796 350.248 186.655 363.081 179.995 374.013C174.047 384.47 162.395 391.362 150.258 390.887C119.571 390.887 95.544 366.171 65.0946 366.408C47.9663 366.408 32.028 374.489 18.944 384.945C-3.89285 403.007 -21.7352 426.297 -43.1449 446.023C-44.0969 446.973 -45.048 447.686 -45.9991 448.637V467.174L-45.5195 467.169Z" fill="black"/>
<path d="M-45.5195 344.778C-31.9595 333.371 -16.7352 323.864 0.631081 319.825C19.6625 315.072 39.6451 311.745 56.5308 301.05C70.804 292.257 80.7957 277.76 85.3151 261.838C92.2137 238.073 89.1214 212.406 80.5577 189.596C71.994 167.731 58.196 147.531 39.6406 133.034C32.942 128.462 25.9509 124.332 18.7123 120.672C41.7835 135.886 57.4883 160.36 65.1009 186.74C71.7578 209.788 71.7578 235.458 62.0087 257.56C56.2992 270.155 47.4975 281.801 36.0787 289.88C15.6201 305.094 -10.3099 309.843 -32.6708 321.492C-36.9567 323.869 -41.2345 326.72 -45.2788 329.335V344.778H-45.5195Z" fill="black"/>
<path d="M-45.5214 329.33C-41.4965 326.441 -37.2847 323.821 -32.9134 321.488C-10.5517 309.842 15.3774 305.09 35.836 289.876C47.2549 281.795 56.0566 270.389 61.766 257.555C71.5234 235.216 71.5234 209.787 64.8583 186.735C57.2457 160.589 41.5454 135.877 18.4697 120.667C11.6823 116.999 4.60166 113.9 -2.69926 111.403C29.1782 128.039 47.2576 164.162 49.6358 199.335C51.063 220.961 45.8296 243.301 33.4596 261.362C21.8027 278.945 3.96132 290.594 -14.1181 300.338C-24.3469 305.804 -35.2907 310.557 -45.2815 316.26V329.331L-45.5214 329.33Z" fill="white"/>
<path d="M-45.5197 316.022C-35.2908 310.318 -24.586 305.565 -14.3562 300.099C3.96123 290.593 21.8027 278.711 33.2215 261.124C45.5915 243.062 50.8213 220.723 49.3978 199.096C47.0186 164.161 29.1772 128.038 -2.93735 111.165C-10.129 108.201 -17.6293 106.049 -25.2991 104.749C-9.36078 109.977 3.48521 121.86 12.2869 135.643C35.3581 171.054 36.3138 220.485 12.0489 255.658C-2.22422 277.284 -23.8719 291.543 -45.5197 304.852V316.022V316.022Z" fill="black"/>
<path d="M-45.5195 304.614C-23.8718 291.305 -2.2241 277.046 12.049 255.42C36.3139 220.247 35.5999 171.053 12.287 135.406C3.48533 121.622 -9.59867 109.739 -25.2989 104.511C-31.9558 103.085 -38.859 101.896 -45.5195 102.134V102.61C-22.6827 106.891 -6.26839 126.85 2.53788 147.522C12.34 171.834 13.4323 198.784 5.63014 223.808C-0.554401 244.009 -12.9253 261.833 -27.9115 276.329C-33.383 281.795 -39.3304 286.786 -45.277 291.776V304.61L-45.5195 304.614Z" fill="white"/>
<path d="M-45.5197 291.544C-39.4532 286.717 -33.6561 281.561 -28.1542 276.101C-13.1671 261.366 -0.797058 243.542 5.38749 223.58C13.309 198.571 12.215 171.58 2.29522 147.293C-6.26849 126.614 -22.6828 106.654 -45.7622 102.381V109.748C-38.1497 114.03 -31.7271 120.442 -26.7308 127.572C-14.6024 144.445 -8.88932 165.596 -8.88932 186.272C-8.88932 210.275 -16.5019 233.803 -29.8239 253.766C-34.6627 261.147 -40.0713 268.14 -46.0002 274.68V291.553L-45.5197 291.544Z" fill="black"/>
<path d="M193.796 448.632C192.737 447.623 191.626 446.671 190.466 445.78C180.788 454.141 170.62 461.918 160.017 469.07C167.153 465.743 174.052 461.941 180.95 458.138C184.994 455.049 189.99 452.431 193.796 448.632Z" fill="black"/>
<path d="M185.708 441.982C183.566 440.798 181.901 439.131 179.998 437.701C159.064 454.812 140.984 476.201 116.482 488.558C124.258 485.901 131.814 482.642 139.082 478.811C156.209 468.833 170.72 455.049 185.708 441.982Z" fill="black"/>
<path d="M168.58 427.956C165.963 426.772 163.347 422.252 160.255 424.629C136.704 436.037 120.051 457.425 101.02 474.774C87.4599 487.845 72.2356 500.441 53.4421 505.194C60.8969 504.329 68.2872 502.98 75.5659 501.153C113.39 486.181 134.566 448.632 168.58 427.956Z" fill="white"/>
<path d="M157.161 418.926C155.258 417.741 153.593 416.074 151.452 415.361C139.082 415.836 127.663 421.302 117.91 428.432C98.8788 442.215 84.1296 460.515 67.0022 476.675C52.0151 491.172 34.4117 504.955 13.002 506.856C19.2523 507.451 25.545 507.451 31.7954 506.856C43.6894 505.193 54.6322 499.965 64.1479 492.835C83.1794 479.289 98.162 460.989 115.294 445.067C127.425 433.898 140.747 422.966 157.161 418.926Z" fill="white"/>
<path d="M148.359 412.034C141.703 407.281 133.131 406.33 125.047 406.092C107.447 406.568 92.2181 417.024 79.3721 428.194C57.4864 447.681 39.6449 471.684 15.618 488.796C3.01004 497.827 -12.6902 503.53 -28.6294 501.629C-21.9828 503.297 -15.2254 504.488 -8.4088 505.194C5.62633 505.432 19.1863 500.203 30.6052 492.36C59.3895 472.398 78.897 441.982 107.681 422.253C119.575 413.935 134.086 409.419 148.359 412.034Z" fill="white"/>
<path d="M-45.5196 497.113C-29.3434 499.252 -13.1671 494.024 -0.0830932 484.756C28.9392 464.317 48.6838 433.898 76.9929 412.984C87.6978 405.379 100.306 399.675 113.39 399.913C122.905 399.675 132.421 403.24 140.509 407.042C126.949 397.774 110.535 390.882 93.8832 393.021C76.0418 395.398 61.0546 406.805 47.9706 418.45C24.4198 439.839 5.38469 466.931 -22.4439 483.804C-29.6308 488.138 -37.6592 490.893 -45.9947 491.885V497.113H-45.5196Z" fill="white"/>
</svg>
