<svg fill="rgb(201, 196, 212)" xmlns="http://www.w3.org/2000/svg" xmlns:xlink="http://www.w3.org/1999/xlink" version="1.1" x="0px" y="0px" viewBox="0 0 1000 1000" enable-background="new 0 0 1000 1000" xml:space="preserve">
<metadata> Svg Vector Icons : http://www.onlinewebfonts.com/icon </metadata>
<g><path d="M56.2,25.7C30.8,25.7,10,46.5,10,71.9v339.5c0,25.4,20.8,46.2,46.2,46.2h339.5c25.4,0,46.2-20.8,46.2-46.2V71.9c0-25.4-20.8-46.2-46.2-46.2H56.2L56.2,25.7z"/><path d="M56.2,25.7C30.8,25.7,10,46.5,10,71.9v339.5c0,25.4,20.8,46.2,46.2,46.2h339.5c25.4,0,46.2-20.8,46.2-46.2V71.9c0-25.4-20.8-46.2-46.2-46.2H56.2L56.2,25.7z"/><path d="M519.1,226.9c-18,18-18,47.4,0,65.3l196,196c18,18,47.4,18,65.3,0l196-196c18-18,18-47.4,0-65.3l-196-196c-18-18-47.4-18-65.3,0L519.1,226.9L519.1,226.9z"/><path d="M519.1,226.9c-18,18-18,47.4,0,65.3l196,196c18,18,47.4,18,65.3,0l196-196c18-18,18-47.4,0-65.3l-196-196c-18-18-47.4-18-65.3,0L519.1,226.9L519.1,226.9z"/><path d="M584.7,550.7c-25.4,0-46.2,20.8-46.2,46.2v339.5c0,25.4,20.8,46.2,46.2,46.2h339.5c25.4,0,46.2-20.8,46.2-46.2V596.9c0-25.4-20.8-46.2-46.2-46.2H584.7L584.7,550.7L584.7,550.7z"/><path d="M584.7,550.7c-25.4,0-46.2,20.8-46.2,46.2v339.5c0,25.4,20.8,46.2,46.2,46.2h339.5c25.4,0,46.2-20.8,46.2-46.2V596.9c0-25.4-20.8-46.2-46.2-46.2H584.7L584.7,550.7L584.7,550.7z"/><path d="M56.2,550.7c-25.4,0-46.2,20.8-46.2,46.2v339.5c0,25.4,20.8,46.2,46.2,46.2h339.5c25.4,0,46.2-20.8,46.2-46.2V596.9c0-25.4-20.8-46.2-46.2-46.2H56.2L56.2,550.7L56.2,550.7z"/><path d="M56.2,550.7c-25.4,0-46.2,20.8-46.2,46.2v339.5c0,25.4,20.8,46.2,46.2,46.2h339.5c25.4,0,46.2-20.8,46.2-46.2V596.9c0-25.4-20.8-46.2-46.2-46.2H56.2L56.2,550.7L56.2,550.7z"/></g>
</svg>